<svg xmlns="http://www.w3.org/2000/svg" width="1160" height="640" viewBox="0 0 1160 640"><defs><linearGradient id="bg" x1="0" y1="0" x2="1" y2="1"><stop offset="0" stop-color="#0b1020"/><stop offset="1" stop-color="#16204a"/></linearGradient><linearGradient id="acc" x1="0" y1="0" x2="1" y2="0"><stop offset="0" stop-color="#4f8cff"/><stop offset="1" stop-color="#37d0a5"/></linearGradient><marker id="arrow" viewBox="0 0 10 10" refX="9" refY="5" markerWidth="7" markerHeight="7" orient="auto-start-reverse"><path d="M0,0 L10,5 L0,10 z" fill="#5b6a95"/></marker></defs><rect width="1160" height="640" fill="url(#bg)"/><text x="40" y="50" font-family="Segoe UI, Arial, sans-serif" font-size="26" font-weight="800" fill="#e8ecf8">Lead Capture &#8594; CRM + Instant Alert</text><text x="40" y="76" font-family="Segoe UI, Arial, sans-serif" font-size="14" fill="#9aa7c7">Real diagram of the tested n8n build (10 nodes) &#183; not a mockup</text><text x="1120" y="50" font-family="Segoe UI, Arial, sans-serif" font-size="20" font-weight="700" fill="#4f8cff" letter-spacing="3" text-anchor="end">ALKHIER</text><rect x="0" y="634" width="1160" height="6" fill="url(#acc)"/><rect x="40" y="150" width="180" height="60" rx="10" fill="#4f8cff" stroke="#4f8cff" stroke-width="2"/><text x="130.0" y="174.0" font-family="Segoe UI, Arial, sans-serif" font-size="17" font-weight="700" fill="#0b1020" text-anchor="middle">Lead Form</text><text x="130.0" y="196.0" font-family="Segoe UI, Arial, sans-serif" font-size="17" font-weight="700" fill="#0b1020" text-anchor="middle">Submission</text><rect x="260" y="150" width="180" height="60" rx="10" fill="#1a2140" stroke="#232c52" stroke-width="2"/><text x="350.0" y="185.0" font-family="Segoe UI, Arial, sans-serif" font-size="17" font-weight="700" fill="#e8ecf8" text-anchor="middle">Normalize Lead</text><text x="350.0" y="228" font-family="Segoe UI, Arial, sans-serif" font-size="13" fill="#9aa7c7" text-anchor="middle">lowercase + trim email</text><rect x="480" y="150" width="180" height="60" rx="10" fill="#f5a623" stroke="#f5a623" stroke-width="2"/><text x="570.0" y="185.0" font-family="Segoe UI, Arial, sans-serif" font-size="17" font-weight="700" fill="#0b1020" text-anchor="middle">Valid Lead?</text><text x="570.0" y="228" font-family="Segoe UI, Arial, sans-serif" font-size="13" fill="#9aa7c7" text-anchor="middle">email has @, name not empty</text><rect x="730" y="60" width="340" height="60" rx="10" fill="#5b6a95" stroke="#5b6a95" stroke-width="2"/><text x="900.0" y="95.0" font-family="Segoe UI, Arial, sans-serif" font-size="17" font-weight="700" fill="#0b1020" text-anchor="middle">Log Invalid Submission</text><text x="900.0" y="138" font-family="Segoe UI, Arial, sans-serif" font-size="13" fill="#9aa7c7" text-anchor="middle">spam/bots never reach the CRM</text><path d="M660,180 L695.0,180 L695.0,90 L730,90" stroke="#5b6a95" stroke-width="2" fill="none" marker-end="url(#arrow)"/><rect x="663.8" y="124" width="62.4" height="20" rx="5" fill="#0b1020"/><text x="695" y="139" font-family="Segoe UI, Arial, sans-serif" font-size="13" fill="#9aa7c7" text-anchor="middle">invalid</text><rect x="730" y="230" width="340" height="60" rx="10" fill="#f5a623" stroke="#f5a623" stroke-width="2"/><text x="900.0" y="265.0" font-family="Segoe UI, Arial, sans-serif" font-size="17" font-weight="700" fill="#0b1020" text-anchor="middle">CRM Duplicate Check</text><text x="900.0" y="308" font-family="Segoe UI, Arial, sans-serif" font-size="13" fill="#9aa7c7" text-anchor="middle">email against existing records</text><path d="M660,180 L695.0,180 L695.0,260 L730,260" stroke="#5b6a95" stroke-width="2" fill="none" marker-end="url(#arrow)"/><rect x="671.0" y="209" width="48.0" height="20" rx="5" fill="#0b1020"/><text x="695" y="224" font-family="Segoe UI, Arial, sans-serif" font-size="13" fill="#9aa7c7" text-anchor="middle">valid</text><rect x="730" y="340" width="160" height="60" rx="10" fill="#5b6a95" stroke="#5b6a95" stroke-width="2"/><text x="810.0" y="375.0" font-family="Segoe UI, Arial, sans-serif" font-size="17" font-weight="700" fill="#0b1020" text-anchor="middle">Duplicate</text><rect x="910" y="340" width="160" height="60" rx="10" fill="#37d0a5" stroke="#37d0a5" stroke-width="2"/><text x="990.0" y="375.0" font-family="Segoe UI, Arial, sans-serif" font-size="17" font-weight="700" fill="#0b1020" text-anchor="middle">New lead</text><path d="M830,290 L810,340" stroke="#5b6a95" stroke-width="2" fill="none" marker-end="url(#arrow)"/><path d="M990,290 L990,340" stroke="#5b6a95" stroke-width="2" fill="none" marker-end="url(#arrow)"/><rect x="500" y="460" width="340" height="60" rx="10" fill="#5b6a95" stroke="#5b6a95" stroke-width="2"/><text x="670.0" y="495.0" font-family="Segoe UI, Arial, sans-serif" font-size="17" font-weight="700" fill="#0b1020" text-anchor="middle">Update Existing Record</text><text x="670.0" y="538" font-family="Segoe UI, Arial, sans-serif" font-size="13" fill="#9aa7c7" text-anchor="middle">no duplicate row created</text><path d="M810,400 L670,460" stroke="#5b6a95" stroke-width="2" fill="none" marker-end="url(#arrow)"/><rect x="880" y="460" width="240" height="60" rx="10" fill="#37d0a5" stroke="#37d0a5" stroke-width="2"/><text x="1000.0" y="495.0" font-family="Segoe UI, Arial, sans-serif" font-size="17" font-weight="700" fill="#0b1020" text-anchor="middle">Add to CRM (mocked)</text><path d="M990,400 L1000,460" stroke="#5b6a95" stroke-width="2" fill="none" marker-end="url(#arrow)"/><rect x="880" y="560" width="240" height="60" rx="10" fill="#37d0a5" stroke="#37d0a5" stroke-width="2"/><text x="1000.0" y="595.0" font-family="Segoe UI, Arial, sans-serif" font-size="17" font-weight="700" fill="#0b1020" text-anchor="middle">Compose + Send Alert</text><text x="1000.0" y="638" font-family="Segoe UI, Arial, sans-serif" font-size="13" fill="#9aa7c7" text-anchor="middle">Slack/Telegram/WhatsApp (mocked)</text><path d="M1000,520 L1000,560" stroke="#5b6a95" stroke-width="2" fill="none" marker-end="url(#arrow)"/></svg>
