<svg xmlns="http://www.w3.org/2000/svg" width="1240" height="640" viewBox="0 0 1240 640"><defs><linearGradient id="bg" x1="0" y1="0" x2="1" y2="1"><stop offset="0" stop-color="#0b1020"/><stop offset="1" stop-color="#16204a"/></linearGradient><linearGradient id="acc" x1="0" y1="0" x2="1" y2="0"><stop offset="0" stop-color="#4f8cff"/><stop offset="1" stop-color="#37d0a5"/></linearGradient><marker id="arrow" viewBox="0 0 10 10" refX="9" refY="5" markerWidth="7" markerHeight="7" orient="auto-start-reverse"><path d="M0,0 L10,5 L0,10 z" fill="#5b6a95"/></marker></defs><rect width="1240" height="640" fill="url(#bg)"/><text x="40" y="50" font-family="Segoe UI, Arial, sans-serif" font-size="26" font-weight="800" fill="#e8ecf8">Salla / Zid Store &#8212; WhatsApp Automation</text><text x="40" y="76" font-family="Segoe UI, Arial, sans-serif" font-size="14" fill="#9aa7c7">Real diagram of the tested n8n build (13 nodes) &#183; not a mockup</text><text x="1200" y="50" font-family="Segoe UI, Arial, sans-serif" font-size="20" font-weight="700" fill="#4f8cff" letter-spacing="3" text-anchor="end">ALKHIER</text><rect x="0" y="634" width="1240" height="6" fill="url(#acc)"/><rect x="40" y="150" width="190" height="60" rx="10" fill="#4f8cff" stroke="#4f8cff" stroke-width="2"/><text x="135.0" y="174.0" font-family="Segoe UI, Arial, sans-serif" font-size="17" font-weight="700" fill="#0b1020" text-anchor="middle">Store Event</text><text x="135.0" y="196.0" font-family="Segoe UI, Arial, sans-serif" font-size="17" font-weight="700" fill="#0b1020" text-anchor="middle">(webhook)</text><text x="135.0" y="228" font-family="Segoe UI, Arial, sans-serif" font-size="13" fill="#9aa7c7" text-anchor="middle">order.created / shipped / cart.abandoned</text><rect x="280" y="150" width="190" height="60" rx="10" fill="#1a2140" stroke="#232c52" stroke-width="2"/><text x="375.0" y="174.0" font-family="Segoe UI, Arial, sans-serif" font-size="17" font-weight="700" fill="#e8ecf8" text-anchor="middle">Normalize</text><text x="375.0" y="196.0" font-family="Segoe UI, Arial, sans-serif" font-size="17" font-weight="700" fill="#e8ecf8" text-anchor="middle">Event</text><rect x="520" y="150" width="220" height="60" rx="10" fill="#1a2140" stroke="#232c52" stroke-width="2"/><text x="630.0" y="174.0" font-family="Segoe UI, Arial, sans-serif" font-size="17" font-weight="700" fill="#e8ecf8" text-anchor="middle">Route by</text><text x="630.0" y="196.0" font-family="Segoe UI, Arial, sans-serif" font-size="17" font-weight="700" fill="#e8ecf8" text-anchor="middle">Event Type</text><rect x="880" y="40" width="320" height="60" rx="10" fill="#1a2140" stroke="#232c52" stroke-width="2"/><text x="1040.0" y="64.0" font-family="Segoe UI, Arial, sans-serif" font-size="17" font-weight="700" fill="#e8ecf8" text-anchor="middle">Compose Order</text><text x="1040.0" y="86.0" font-family="Segoe UI, Arial, sans-serif" font-size="17" font-weight="700" fill="#e8ecf8" text-anchor="middle">Confirmation (AR)</text><text x="1040.0" y="118" font-family="Segoe UI, Arial, sans-serif" font-size="13" fill="#9aa7c7" text-anchor="middle">name + order + items + total &#8594; WhatsApp</text><rect x="880" y="140" width="320" height="60" rx="10" fill="#1a2140" stroke="#232c52" stroke-width="2"/><text x="1040.0" y="164.0" font-family="Segoe UI, Arial, sans-serif" font-size="17" font-weight="700" fill="#e8ecf8" text-anchor="middle">Compose Shipping</text><text x="1040.0" y="186.0" font-family="Segoe UI, Arial, sans-serif" font-size="17" font-weight="700" fill="#e8ecf8" text-anchor="middle">Update (AR)</text><text x="1040.0" y="218" font-family="Segoe UI, Arial, sans-serif" font-size="13" fill="#9aa7c7" text-anchor="middle">&#8594; WhatsApp</text><rect x="880" y="340" width="320" height="60" rx="10" fill="#f5a623" stroke="#f5a623" stroke-width="2"/><text x="1040.0" y="364.0" font-family="Segoe UI, Arial, sans-serif" font-size="17" font-weight="700" fill="#0b1020" text-anchor="middle">Wait 30 min then recheck</text><text x="1040.0" y="386.0" font-family="Segoe UI, Arial, sans-serif" font-size="17" font-weight="700" fill="#0b1020" text-anchor="middle">Purchased meanwhile?</text><path d="M740,180 L810,180 L810,70 L880,70" stroke="#5b6a95" stroke-width="2" fill="none" marker-end="url(#arrow)"/><rect x="757.2" y="114" width="105.60000000000001" height="20" rx="5" fill="#0b1020"/><text x="810" y="129" font-family="Segoe UI, Arial, sans-serif" font-size="13" fill="#9aa7c7" text-anchor="middle">order.created</text><path d="M740,180 L810,180 L810,170 L880,170" stroke="#5b6a95" stroke-width="2" fill="none" marker-end="url(#arrow)"/><rect x="757.2" y="164" width="105.60000000000001" height="20" rx="5" fill="#0b1020"/><text x="810" y="179" font-family="Segoe UI, Arial, sans-serif" font-size="13" fill="#9aa7c7" text-anchor="middle">order.shipped</text><path d="M740,180 L810,180 L810,370 L880,370" stroke="#5b6a95" stroke-width="2" fill="none" marker-end="url(#arrow)"/><rect x="753.6" y="264" width="112.8" height="20" rx="5" fill="#0b1020"/><text x="810" y="279" font-family="Segoe UI, Arial, sans-serif" font-size="13" fill="#9aa7c7" text-anchor="middle">cart.abandoned</text><rect x="40" y="340" width="190" height="60" rx="10" fill="#5b6a95" stroke="#5b6a95" stroke-width="2"/><text x="135.0" y="375.0" font-family="Segoe UI, Arial, sans-serif" font-size="17" font-weight="700" fill="#0b1020" text-anchor="middle">Unknown event</text><text x="135.0" y="418" font-family="Segoe UI, Arial, sans-serif" font-size="13" fill="#9aa7c7" text-anchor="middle">logged, ignored</text><path d="M630,210 L630,260 L135,260 L135,340" stroke="#5b6a95" stroke-width="2" fill="none" marker-end="url(#arrow)"/><rect x="330.2" y="260" width="105.60000000000001" height="20" rx="5" fill="#0b1020"/><text x="383" y="275" font-family="Segoe UI, Arial, sans-serif" font-size="13" fill="#9aa7c7" text-anchor="middle">anything else</text><rect x="910" y="450" width="150" height="60" rx="10" fill="#5b6a95" stroke="#5b6a95" stroke-width="2"/><text x="985.0" y="474.0" font-family="Segoe UI, Arial, sans-serif" font-size="17" font-weight="700" fill="#0b1020" text-anchor="middle">Purchased?</text><text x="985.0" y="496.0" font-family="Segoe UI, Arial, sans-serif" font-size="17" font-weight="700" fill="#0b1020" text-anchor="middle">YES</text><rect x="1080" y="450" width="150" height="60" rx="10" fill="#37d0a5" stroke="#37d0a5" stroke-width="2"/><text x="1155.0" y="474.0" font-family="Segoe UI, Arial, sans-serif" font-size="17" font-weight="700" fill="#0b1020" text-anchor="middle">Purchased?</text><text x="1155.0" y="496.0" font-family="Segoe UI, Arial, sans-serif" font-size="17" font-weight="700" fill="#0b1020" text-anchor="middle">NO</text><path d="M1040,400 L1040,400 L1040,480 L910,480" stroke="#5b6a95" stroke-width="2" fill="none" marker-end="url(#arrow)"/><path d="M1040,400 L1040,400 L1040,480 L1080,480" stroke="#5b6a95" stroke-width="2" fill="none" marker-end="url(#arrow)"/><rect x="40" y="540" width="340" height="70" rx="10" fill="#5b6a95" stroke="#5b6a95" stroke-width="2"/><text x="210.0" y="569.0" font-family="Segoe UI, Arial, sans-serif" font-size="17" font-weight="700" fill="#0b1020" text-anchor="middle">Skip &#8212; already purchased</text><text x="210.0" y="591.0" font-family="Segoe UI, Arial, sans-serif" font-size="17" font-weight="700" fill="#0b1020" text-anchor="middle">NO message sent (the guardrail)</text><rect x="430" y="540" width="340" height="70" rx="10" fill="#37d0a5" stroke="#37d0a5" stroke-width="2"/><text x="600.0" y="569.0" font-family="Segoe UI, Arial, sans-serif" font-size="17" font-weight="700" fill="#0b1020" text-anchor="middle">Compose Cart Recovery (AR)</text><text x="600.0" y="591.0" font-family="Segoe UI, Arial, sans-serif" font-size="17" font-weight="700" fill="#0b1020" text-anchor="middle">+ discount code &#8594; WhatsApp</text><path d="M985,510 L985,522 L210,522 L210,540" stroke="#5b6a95" stroke-width="2" fill="none" marker-end="url(#arrow)"/><path d="M1130,510 L1130,528 L610,528 L610,540" stroke="#5b6a95" stroke-width="2" fill="none" marker-end="url(#arrow)"/></svg>
