<svg xmlns="http://www.w3.org/2000/svg" width="1160" height="640" viewBox="0 0 1160 640"><defs><linearGradient id="bg" x1="0" y1="0" x2="1" y2="1"><stop offset="0" stop-color="#0b1020"/><stop offset="1" stop-color="#16204a"/></linearGradient><linearGradient id="acc" x1="0" y1="0" x2="1" y2="0"><stop offset="0" stop-color="#4f8cff"/><stop offset="1" stop-color="#37d0a5"/></linearGradient><marker id="arrow" viewBox="0 0 10 10" refX="9" refY="5" markerWidth="7" markerHeight="7" orient="auto-start-reverse"><path d="M0,0 L10,5 L0,10 z" fill="#5b6a95"/></marker></defs><rect width="1160" height="640" fill="url(#bg)"/><text x="40" y="50" font-family="Segoe UI, Arial, sans-serif" font-size="26" font-weight="800" fill="#e8ecf8">Web Scraper &#8594; Clean Data &#8594; Sheet</text><text x="40" y="76" font-family="Segoe UI, Arial, sans-serif" font-size="14" fill="#9aa7c7">Real diagram of the tested n8n build (5 nodes) &#183; not a mockup</text><text x="1120" y="50" font-family="Segoe UI, Arial, sans-serif" font-size="20" font-weight="700" fill="#4f8cff" letter-spacing="3" text-anchor="end">ALKHIER</text><rect x="0" y="634" width="1160" height="6" fill="url(#acc)"/><rect x="40" y="270" width="190" height="60" rx="10" fill="#4f8cff" stroke="#4f8cff" stroke-width="2"/><text x="135.0" y="305.0" font-family="Segoe UI, Arial, sans-serif" font-size="17" font-weight="700" fill="#0b1020" text-anchor="middle">Run Scraper</text><text x="135.0" y="348" font-family="Segoe UI, Arial, sans-serif" font-size="13" fill="#9aa7c7" text-anchor="middle">manual / scheduled</text><rect x="280" y="270" width="190" height="60" rx="10" fill="#1a2140" stroke="#232c52" stroke-width="2"/><text x="375.0" y="294.0" font-family="Segoe UI, Arial, sans-serif" font-size="17" font-weight="700" fill="#e8ecf8" text-anchor="middle">Fetch Listings</text><text x="375.0" y="316.0" font-family="Segoe UI, Arial, sans-serif" font-size="17" font-weight="700" fill="#e8ecf8" text-anchor="middle">Page</text><text x="375.0" y="348" font-family="Segoe UI, Arial, sans-serif" font-size="13" fill="#9aa7c7" text-anchor="middle">public data only</text><rect x="520" y="270" width="220" height="60" rx="10" fill="#1a2140" stroke="#232c52" stroke-width="2"/><text x="630.0" y="305.0" font-family="Segoe UI, Arial, sans-serif" font-size="17" font-weight="700" fill="#e8ecf8" text-anchor="middle">Extract Products</text><text x="630.0" y="348" font-family="Segoe UI, Arial, sans-serif" font-size="13" fill="#9aa7c7" text-anchor="middle">parse title / price / stock</text><path d="M230,300 L280,300" stroke="#5b6a95" stroke-width="2" fill="none" marker-end="url(#arrow)"/><path d="M470,300 L520,300" stroke="#5b6a95" stroke-width="2" fill="none" marker-end="url(#arrow)"/><rect x="790" y="150" width="300" height="80" rx="10" fill="#f5a623" stroke="#f5a623" stroke-width="2"/><text x="940.0" y="195.0" font-family="Segoe UI, Arial, sans-serif" font-size="17" font-weight="700" fill="#0b1020" text-anchor="middle">Clean + Dedupe + Validate</text><text x="940.0" y="248" font-family="Segoe UI, Arial, sans-serif" font-size="13" fill="#9aa7c7" text-anchor="middle">numeric price, drop dupes, reject bad rows</text><path d="M740,300 L765.0,300 L765.0,190 L790,190" stroke="#5b6a95" stroke-width="2" fill="none" marker-end="url(#arrow)"/><rect x="790" y="320" width="300" height="70" rx="10" fill="#37d0a5" stroke="#37d0a5" stroke-width="2"/><text x="940.0" y="360.0" font-family="Segoe UI, Arial, sans-serif" font-size="17" font-weight="700" fill="#0b1020" text-anchor="middle">Clean rows &#8594; Sheet</text><text x="940.0" y="408" font-family="Segoe UI, Arial, sans-serif" font-size="13" fill="#9aa7c7" text-anchor="middle">appended, mocked write</text><rect x="790" y="420" width="300" height="70" rx="10" fill="#5b6a95" stroke="#5b6a95" stroke-width="2"/><text x="940.0" y="460.0" font-family="Segoe UI, Arial, sans-serif" font-size="17" font-weight="700" fill="#0b1020" text-anchor="middle">Rejected rows &#8594; report</text><text x="940.0" y="508" font-family="Segoe UI, Arial, sans-serif" font-size="13" fill="#9aa7c7" text-anchor="middle">reason logged per row</text><path d="M940,230 L940,320" stroke="#5b6a95" stroke-width="2" fill="none" marker-end="url(#arrow)"/><path d="M940,230 L1120,230 L1120,455 L1090,455" stroke="#5b6a95" stroke-width="2" fill="none" marker-end="url(#arrow)"/></svg>
